PathFileType	4	(x/y/z)	S01_SL_Cal.trc
DataRate	CameraRate	NumFrames	NumMarkers	Units	OrigDataRate	OrigDataStartFrame	OrigNumFrames
240	240	7	51	mm	240	901	2400
Frame#	Time	Sternum			R.Acromium			L.Acromium			Top.Head			R.ASIS			L.ASIS			R.PSIS			L.PSIS			R.Great.Tro			L.Great.Tro			R.Iliac.Crest			L.Iliac.Crest			V.Sacral			R.Thigh.Upper.Post			R.Thigh.Lower.Ant			R.Thigh.Lower.Post			R.Thigh.Upper.Ant			R.Knee.Lat			R.Knee.Med			R.Shank.Upper.Post			R.Shank.Lower.Ant			R.Shank.Lower.Post			R.Shank.Upper.Ant			R.Ankle.Lat			R.Ankle.Med			R.Heel.Upper			R.Heel.Med			R.Heel.Lat			R.Toe.Lat			R.Toe.Med			R.Toe.Tip			L.Thigh.Upper.Post			L.Thigh.Lower.Ant			L.Thigh.Lower.Post			L.Thigh.Upper.Ant			L.Knee.Lat			L.Knee.Med			L.Shank.Upper.Post			L.Shank.Lower.Ant			L.Shank.Lower.Post			L.Shank.Upper.Ant			L.Ankle.Lat			L.Ankle.Med			L.Heel.Upper			L.Heel.Med			L.Heel.Lat			L.Toe.Lat			L.Toe.Med			L.Toe.Tip			Cervical.Spine			Back			
		X1	Y1	Z1	X2	Y2	Z2	X3	Y3	Z3	X4	Y4	Z4	X5	Y5	Z5	X6	Y6	Z6	X7	Y7	Z7	X8	Y8	Z8	X9	Y9	Z9	X10	Y10	Z10	X11	Y11	Z11	X12	Y12	Z12	X13	Y13	Z13	X14	Y14	Z14	X15	Y15	Z15	X16	Y16	Z16	X17	Y17	Z17	X18	Y18	Z18	X19	Y19	Z19	X20	Y20	Z20	X21	Y21	Z21	X22	Y22	Z22	X23	Y23	Z23	X24	Y24	Z24	X25	Y25	Z25	X26	Y26	Z26	X27	Y27	Z27	X28	Y28	Z28	X29	Y29	Z29	X30	Y30	Z30	X31	Y31	Z31	X32	Y32	Z32	X33	Y33	Z33	X34	Y34	Z34	X35	Y35	Z35	X36	Y36	Z36	X37	Y37	Z37	X38	Y38	Z38	X39	Y39	Z39	X40	Y40	Z40	X41	Y41	Z41	X42	Y42	Z42	X43	Y43	Z43	X44	Y44	Z44	X45	Y45	Z45	X46	Y46	Z46	X47	Y47	Z47	X48	Y48	Z48	X49	Y49	Z49	X50	Y50	Z50	X51	Y51	Z51	

901	3.75	721.12	1312.2	260.71	577.25	1553.1	441.91	533.25	1563.1	117.43	510.93	1868.3	281.49	705.86	1045.7	419.82	697.34	1046.6	148.48	464.49	1079	333.23	458.62	1077.5	229.96	625.33	991.63	502.1	584.09	995.25	73.504	610.53	1141.6	484.94	577.77	1124.6	79.972	449.56	1041.7	280.05	583.84	694.83	496.73	643.63	615.14	471.71	575.52	606.43	481.46	655.67	704.34	486.37	589.79	537.13	477.54	593.63	527.28	335.53	509.02	389.85	513.55	559.6	296.64	480.92	495.86	319.78	508.16	568.93	369.23	492.04	475.76	111.42	490.13	508.87	109.56	398.3	408.32	77.809	435.91	420	46.775	407.27	416.45	48.401	471.85	605.07	34.309	529	636.41	39.995	405.76	699.84	55.018	460.95	519.26	725.72	84.681	593.34	644.78	72.776	518.12	635.06	95.513	585.6	739.5	60.338	552.46	541.22	79.588	586.41	529.26	216.51	481.33	410.91	56.062	538.19	315.96	66.49	477.29	333.19	52.921	543.11	392.86	64.68	458.75	112.11	75.392	491.08	118.15	168.58	390.82	78.718	120.3	401.62	51.339	152.59	398.76	52.932	90.662	602.58	37.541	41.699	628.33	47.083	163.35	689.91	58.371	112.5	472.78	1596.4	288.61	420.1	1275.3	306.09
902	3.7542	721.14	1312.2	260.69	577.27	1553.1	441.9	533.28	1563.1	117.41	510.98	1868.3	281.48	705.9	1045.7	419.8	697.36	1046.6	148.46	464.52	1079	333.22	458.65	1077.5	229.95	625.36	991.63	502.08	584.1	995.25	73.493	610.57	1141.7	484.93	577.79	1124.6	79.955	449.58	1041.7	280.05	583.84	694.83	496.72	643.63	615.13	471.7	575.52	606.42	481.45	655.67	704.33	486.36	589.79	537.13	477.53	593.63	527.28	335.52	509.02	389.85	513.53	559.6	296.64	480.92	495.86	319.78	508.15	568.93	369.23	492.04	475.76	111.43	490.13	508.87	109.56	398.3	408.33	77.812	435.9	420.01	46.776	407.27	416.45	48.406	471.85	605.07	34.313	529	636.41	39.994	405.76	699.84	55.017	460.95	519.27	725.73	84.67	593.34	644.78	72.764	518.13	635.06	95.503	585.61	739.51	60.326	552.47	541.22	79.58	586.42	529.26	216.5	481.34	410.91	56.056	538.2	315.96	66.485	477.29	333.19	52.917	543.11	392.86	64.674	458.75	112.11	75.391	491.08	118.15	168.58	390.82	78.72	120.3	401.62	51.341	152.59	398.76	52.934	90.662	602.58	37.541	41.699	628.33	47.084	163.35	689.91	58.37	112.5	472.81	1596.4	288.59	420.11	1275.3	306.08
903	3.7583	721.17	1312.2	260.68	577.29	1553.1	441.89	533.31	1563.1	117.4	511.04	1868.3	281.46	705.93	1045.7	419.79	697.38	1046.6	148.44	464.55	1079	333.22	458.68	1077.5	229.95	625.39	991.63	502.07	584.12	995.25	73.482	610.6	1141.7	484.92	577.81	1124.6	79.939	449.61	1041.7	280.04	583.85	694.82	496.71	643.64	615.13	471.69	575.52	606.42	481.44	655.68	704.33	486.35	589.79	537.13	477.52	593.63	527.28	335.51	509.02	389.85	513.52	559.6	296.65	480.91	495.86	319.79	508.15	568.93	369.24	492.03	475.76	111.43	490.12	508.87	109.56	398.3	408.33	77.814	435.9	420.01	46.777	407.27	416.45	48.412	471.85	605.07	34.316	529	636.41	39.994	405.76	699.84	55.017	460.95	519.28	725.73	84.659	593.35	644.78	72.752	518.14	635.06	95.494	585.62	739.51	60.314	552.47	541.22	79.573	586.43	529.26	216.5	481.35	410.91	56.05	538.21	315.96	66.48	477.3	333.18	52.913	543.12	392.86	64.668	458.76	112.11	75.39	491.08	118.15	168.58	390.82	78.721	120.3	401.62	51.343	152.59	398.76	52.936	90.662	602.58	37.54	41.699	628.33	47.084	163.35	689.91	58.37	112.5	472.84	1596.4	288.57	420.13	1275.3	306.07
904	3.7625	721.19	1312.1	260.67	577.31	1553.1	441.88	533.34	1563.1	117.38	511.1	1868.3	281.43	705.97	1045.7	419.78	697.4	1046.6	148.42	464.58	1079	333.21	458.71	1077.5	229.94	625.42	991.63	502.05	584.14	995.25	73.471	610.64	1141.7	484.91	577.83	1124.6	79.924	449.63	1041.7	280.04	583.85	694.82	496.7	643.64	615.12	471.68	575.53	606.42	481.43	655.68	704.32	486.35	589.79	537.13	477.51	593.63	527.28	335.5	509.01	389.85	513.51	559.6	296.65	480.9	495.86	319.79	508.14	568.93	369.24	492.02	475.76	111.43	490.12	508.87	109.56	398.3	408.33	77.817	435.9	420.01	46.777	407.27	416.45	48.417	471.85	605.06	34.319	529	636.41	39.994	405.76	699.84	55.016	460.95	519.29	725.73	84.648	593.36	644.78	72.74	518.15	635.06	95.485	585.63	739.51	60.302	552.48	541.22	79.566	586.44	529.26	216.49	481.35	410.91	56.044	538.21	315.96	66.476	477.3	333.18	52.909	543.13	392.86	64.662	458.76	112.11	75.389	491.08	118.15	168.58	390.82	78.723	120.3	401.63	51.345	152.59	398.76	52.937	90.662	602.58	37.539	41.699	628.33	47.084	163.35	689.91	58.369	112.5	472.87	1596.4	288.56	420.15	1275.3	306.06
905	3.7667	721.22	1312.1	260.66	577.33	1553.1	441.86	533.37	1563.1	117.37	511.15	1868.3	281.41	706	1045.7	419.76	697.42	1046.6	148.41	464.61	1079.1	333.21	458.73	1077.5	229.93	625.45	991.63	502.04	584.15	995.25	73.461	610.67	1141.7	484.9	577.85	1124.6	79.909	449.66	1041.7	280.03	583.86	694.81	496.7	643.64	615.11	471.67	575.53	606.41	481.42	655.69	704.31	486.34	589.79	537.13	477.5	593.63	527.28	335.48	509.01	389.85	513.5	559.59	296.66	480.9	495.86	319.8	508.14	568.93	369.24	492.02	475.76	111.44	490.12	508.88	109.56	398.29	408.33	77.819	435.9	420.01	46.778	407.26	416.45	48.422	471.85	605.06	34.323	529	636.41	39.994	405.76	699.84	55.015	460.94	519.31	725.74	84.637	593.37	644.77	72.729	518.16	635.06	95.476	585.64	739.51	60.291	552.49	541.22	79.56	586.45	529.26	216.48	481.36	410.91	56.039	538.22	315.96	66.471	477.31	333.18	52.905	543.13	392.86	64.656	458.76	112.11	75.388	491.08	118.15	168.58	390.82	78.725	120.3	401.63	51.346	152.59	398.76	52.939	90.662	602.58	37.539	41.698	628.33	47.084	163.35	689.91	58.369	112.5	472.9	1596.4	288.54	420.17	1275.3	306.05
906	3.7708	721.25	1312.1	260.65	577.34	1553.1	441.85	533.4	1563.1	117.35	511.21	1868.3	281.39	706.03	1045.7	419.75	697.44	1046.6	148.39	464.64	1079.1	333.2	458.76	1077.5	229.93	625.49	991.62	502.03	584.17	995.25	73.45	610.71	1141.7	484.89	577.87	1124.6	79.895	449.69	1041.7	280.03	583.86	694.8	496.69	643.63	615.1	471.66	575.53	606.41	481.41	655.69	704.3	486.33	589.79	537.13	477.49	593.63	527.28	335.47	509.01	389.85	513.49	559.59	296.66	480.89	495.85	319.8	508.13	568.93	369.24	492.01	475.76	111.44	490.12	508.88	109.56	398.29	408.33	77.821	435.9	420.01	46.779	407.26	416.45	48.426	471.85	605.06	34.326	529	636.41	39.994	405.76	699.84	55.015	460.94	519.32	725.74	84.626	593.38	644.77	72.718	518.17	635.06	95.467	585.65	739.51	60.28	552.49	541.22	79.554	586.45	529.26	216.47	481.36	410.91	56.033	538.22	315.96	66.467	477.31	333.18	52.901	543.14	392.86	64.65	458.76	112.11	75.387	491.08	118.15	168.57	390.83	78.726	120.3	401.63	51.348	152.59	398.76	52.94	90.662	602.58	37.538	41.698	628.33	47.085	163.35	689.91	58.368	112.5	472.93	1596.4	288.52	420.18	1275.3	306.04
907	3.775	721.28	1312.1	260.64	577.36	1553.1	441.84	533.42	1563.1	117.34	511.27	1868.3	281.37	706.06	1045.6	419.74	697.47	1046.6	148.38	464.67	1079.1	333.19	458.79	1077.5	229.92	625.51	991.62	502.02	584.19	995.25	73.439	610.74	1141.7	484.88	577.9	1124.6	79.881	449.71	1041.7	280.02	583.87	694.8	496.68	643.63	615.1	471.65	575.53	606.41	481.4	655.7	704.29	486.33	589.79	537.13	477.48	593.63	527.28	335.46	509	389.85	513.48	559.59	296.66	480.89	495.85	319.81	508.12	568.92	369.25	492.01	475.76	111.44	490.11	508.88	109.56	398.29	408.33	77.822	435.9	420.01	46.779	407.26	416.45	48.43	471.85	605.06	34.33	529.01	636.41	39.995	405.76	699.84	55.014	460.94	519.33	725.74	84.614	593.39	644.77	72.709	518.18	635.07	95.459	585.66	739.51	60.27	552.5	541.22	79.548	586.46	529.26	216.47	481.37	410.91	56.028	538.23	315.96	66.463	477.32	333.18	52.897	543.15	392.86	64.644	458.76	112.11	75.387	491.08	118.15	168.57	390.83	78.728	120.3	401.63	51.349	152.59	398.76	52.942	90.662	602.58	37.537	41.698	628.33	47.085	163.35	689.91	58.367	112.5	472.96	1596.4	288.51	420.2	1275.3	306.03
